<?xml version="1.0" encoding="UTF-8"?><svg id="Layer_2" xmlns="http://www.w3.org/2000/svg" viewBox="0 0 31.63 31.63"><defs><style>.cls-1{fill:#fff;}.cls-2{fill:#ffc527;}</style></defs><g id="Layer_1-2"><g><path id="Path_30322" class="cls-2" d="M15.81,0c8.73,0,15.81,7.08,15.81,15.81s-7.08,15.81-15.81,15.81S0,24.55,0,15.81h0C0,7.08,7.08,0,15.81,0Z"/><g id="Group_4129"><g id="Group_3874"><g id="Group_3873"><rect id="Rectangle_27" class="cls-1" x="13.83" y="13.64" width="3.68" height="3.76" transform="translate(-6.38 15.63) rotate(-45)"/></g><path id="Path_23544" class="cls-1" d="M15.66,9.5l.04-.04,4.53,4.44,2.51-2.46-7.19-7.04-7.19,7.04,2.55,2.5,4.64-4.54,.11,.11Z"/><path id="Path_23545" class="cls-1" d="M20.19,17.78l-4.64,4.54-4.64-4.54-2.51,2.46,7.19,7.04,7.15-7-2.55-2.5Z"/><rect id="Rectangle_28" class="cls-1" x="5.11" y="13.98" width="3.48" height="3.63" transform="translate(-9.17 9.47) rotate(-45)"/><rect id="Rectangle_29" class="cls-1" x="22.49" y="13.96" width="3.84" height="3.69" transform="translate(-4.02 21.89) rotate(-45)"/></g></g></g></g></svg>