<?xml version="1.0" encoding="UTF-8"?><svg id="Layer_1" xmlns="http://www.w3.org/2000/svg" viewBox="0 0 24 24"><defs><style>.cls-1{fill:#898989;}</style></defs><g id="Group_29972"><g id="Group_29966"><path id="Path_30526" class="cls-1" d="M12,1.07l2.7,2.76-6.8,6.8-2.7-2.7L12,1.07Z"/><g id="Group_29961"><g id="Group_29960"><path id="Path_30527" class="cls-1" d="M12,1.07l2.7,2.76-6.8,6.8-2.7-2.7L12,1.07Z"/></g></g><path id="Path_30528" class="cls-1" d="M16.1,5.17l2.7,2.76L7.9,18.83l-2.7-2.7L16.1,5.17Z"/><path id="Path_30529" class="cls-1" d="M16.1,5.17l2.7,2.76L7.9,18.83l-2.7-2.7L16.1,5.17Z"/><path id="Path_30530" class="cls-1" d="M1.1,12.03l2.7,2.7,2.7-2.7-2.7-2.76-2.7,2.76Z"/><g id="Group_29963"><g id="Group_29962"><path id="Path_30531" class="cls-1" d="M3.8,9.27l2.7,2.76-2.7,2.7-2.7-2.7,2.7-2.76Z"/></g></g><path id="Path_30532" class="cls-1" d="M9.3,20.23l2.7,2.7,10.9-10.89-2.7-2.76-10.9,10.96Z"/><g id="Group_29965"><g id="Group_29964"><path id="Path_30533" class="cls-1" d="M20.2,9.27l2.7,2.76-10.9,10.9-2.7-2.7,10.9-10.96Z"/></g></g></g></g></svg>