<?xml version="1.0" encoding="UTF-8"?><svg id="Layer_2" xmlns="http://www.w3.org/2000/svg" xmlns:xlink="http://www.w3.org/1999/xlink" viewBox="0 0 124.49 29.45"><defs><style>.cls-1{fill:url(#linear-gradient);}.cls-2{fill:#fff;}.cls-3{fill:url(#linear-gradient-3);}.cls-4{fill:url(#linear-gradient-4);}.cls-5{fill:url(#linear-gradient-2);}</style><linearGradient id="linear-gradient" x1="-52.24" y1="370.71" x2="-51.21" y2="370.3" gradientTransform="translate(247.45 4615.44) scale(4.8 -12.42)" gradientUnits="userSpaceOnUse"><stop offset="0" stop-color="#ffe89b"/><stop offset=".17" stop-color="#fee091"/><stop offset=".45" stop-color="#fdcd76"/><stop offset=".82" stop-color="#fbaf4c"/><stop offset="1" stop-color="#fb9e34"/></linearGradient><linearGradient id="linear-gradient-2" x1="-50.46" y1="370.7" x2="-51.53" y2="370.42" gradientTransform="translate(274.41 4656.77) scale(4.84 -12.53)" xlink:href="#linear-gradient"/><linearGradient id="linear-gradient-3" x1="-95.98" y1="376.51" x2="-94.98" y2="376.51" gradientTransform="translate(2448.32 8808.93) scale(25.5 -23.37)" xlink:href="#linear-gradient"/><linearGradient id="linear-gradient-4" x1="-95.63" y1="348.82" x2="-95.63" y2="348.23" gradientTransform="translate(2488 1628.73) scale(25.87 -4.6)" gradientUnits="userSpaceOnUse"><stop offset="0" stop-color="#371378"/><stop offset="1" stop-color="#a65bf6"/></linearGradient></defs><g id="Layer_1-2"><g id="Layer_1-3"><g id="Group_29832"><g id="Group_29830"><g id="Group_29829"><path id="Path_30445" class="cls-1" d="M4.8,12.62L1.03,8.14c-.21-.25-.58-.28-.82-.07-.14,.12-.21,.29-.21,.47l.53,11.82,4.26-7.73Z"/><path id="Path_30446" class="cls-5" d="M27.1,20.46l.54-11.92c.01-.32-.24-.59-.56-.61-.18,0-.36,.07-.47,.21l-3.81,4.53,4.3,7.79Z"/></g><path id="Path_30447" class="cls-3" d="M26.5,22.48L14.33,.3c-.15-.28-.51-.39-.79-.23-.1,.05-.18,.13-.23,.23L1.14,22.48c-.15,.28-.05,.64,.23,.79,.09,.05,.18,.07,.28,.07l12.17,.02,12.17-.02c.32,0,.58-.26,.58-.58,0-.1-.02-.19-.07-.28Zm-12.68-2.69c-2.32,0-4.19-1.88-4.19-4.19,0-2.32,1.88-4.19,4.19-4.19s4.19,1.88,4.19,4.19h0c0,2.32-1.88,4.19-4.19,4.19Z"/><path id="Path_30448" class="cls-4" d="M26.54,26.04c.28-.26,.29-.69,.04-.97-.13-.14-.31-.22-.5-.22H1.57c-.38,0-.68,.31-.68,.68,0,.19,.08,.37,.22,.5l3.5,3.23c.26,.24,.67,.24,.93,0l3.45-3.19c.26-.24,.67-.24,.93,0l3.45,3.19c.26,.24,.67,.24,.93,0l3.45-3.19c.26-.24,.67-.24,.93,0l3.45,3.19c.26,.24,.67,.24,.93,0l3.5-3.23h0Z"/></g><g id="Group_29831"><path id="Path_30449" class="cls-2" d="M34.58,7.97h2.98v5.91l5.45-5.91h3.65l-5.53,5.74,5.76,7.79h-3.58l-4.19-5.76-1.57,1.62v4.14h-2.98V7.97h0Z"/><path id="Path_30450" class="cls-2" d="M48.82,7.97h2.98v13.53h-2.98V7.97Z"/><path id="Path_30451" class="cls-2" d="M55.18,7.97h2.74l6.34,8.33V7.97h2.94v13.53h-2.53l-6.55-8.6v8.6h-2.94V7.97h0Z"/><path id="Path_30452" class="cls-2" d="M69.84,14.77v-.04c-.03-3.83,3.05-6.97,6.88-7,.07,0,.14,0,.21,0,1.95-.1,3.85,.56,5.31,1.86l-1.87,2.26c-.95-.91-2.22-1.4-3.54-1.37-2.23,.1-3.97,1.98-3.88,4.21v.04c-.13,2.23,1.57,4.15,3.81,4.28,.1,0,.19,0,.29,0,1,.03,1.98-.25,2.8-.81v-1.93h-2.99v-2.57h5.88v5.87c-1.6,1.39-3.66,2.15-5.78,2.14-3.73,.2-6.91-2.67-7.11-6.4,0-.19-.01-.37,0-.56h0Z"/><path id="Path_30453" class="cls-2" d="M85.98,7.97h4.91c2.98,0,5.03,1.53,5.03,4.14v.04c0,2.86-2.43,4.31-5.28,4.31h-3.65v5.05h-1V7.97h0Zm4.72,7.56c2.51,0,4.21-1.29,4.21-3.32v-.04c0-2.14-1.68-3.27-4.1-3.27h-3.83v6.63h3.71Z"/><path id="Path_30454" class="cls-2" d="M102.68,7.87h.97l6.3,13.62h-1.1l-1.72-3.79h-7.98l-1.72,3.79h-1.04l6.3-13.62h0Zm4.02,8.93l-3.56-7.83-3.58,7.83h7.13Z"/><path id="Path_30455" class="cls-2" d="M112.8,7.97h4.5c4.25,0,7.19,2.92,7.19,6.72v.04c0,3.81-2.94,6.76-7.19,6.76h-4.5V7.97Zm1.01,.93v11.67h3.5c3.77,0,6.15-2.57,6.15-5.8v-.04c.03-3.2-2.54-5.81-5.74-5.84-.14,0-.27,0-.41,.01h-3.49Z"/></g></g></g></g></svg>