<?xml version="1.0" encoding="UTF-8"?><svg id="Layer_1" xmlns="http://www.w3.org/2000/svg" viewBox="0 0 17 17"><defs><style>.cls-1{fill:#fff;}</style></defs><path id="Path_2" class="cls-1" d="M8.5,10.84c1.29,0,2.34-1.05,2.34-2.34h0c0-1.3-1.05-2.34-2.34-2.34,0,0,0,0,0,0-1.29,0-2.34,1.05-2.34,2.34,0,0,0,0,0,0,0,1.29,1.05,2.34,2.34,2.34h0Zm0,1c-1.85,0-3.34-1.49-3.35-3.34,0,0,0,0,0,0,0-1.85,1.49-3.34,3.34-3.35,0,0,0,0,.01,0,1.85,0,3.34,1.49,3.35,3.34,0,0,0,0,0,.01,0,1.85-1.49,3.34-3.34,3.35,0,0,0,0-.01,0h0ZM1.64,9c-.28,0-.5-.22-.5-.5s.22-.5,.5-.5h1.68c.28,0,.5,.22,.5,.5s-.22,.5-.5,.5H1.64Zm12.05,0c-.28,0-.5-.22-.5-.5s.22-.5,.5-.5h1.67c.28,0,.5,.22,.5,.5s-.22,.5-.5,.5h-1.67ZM8.5,3.81c-.27,0-.49-.2-.5-.47,0,0,0-.02,0-.03V1.64c0-.28,.22-.5,.5-.5s.5,.22,.5,.5v1.68c0,.27-.2,.49-.47,.5,0,0-.02,0-.03,0h0Zm0,12.05c-.27,0-.49-.2-.5-.47,0,0,0-.02,0-.03v-1.68c0-.28,.22-.5,.5-.5s.5,.22,.5,.5v1.67c0,.27-.2,.49-.47,.5,0,0-.02,0-.03,0h0ZM4.49,5.19l-.95-.94c-.1-.09-.15-.23-.14-.36,0-.13,.05-.26,.14-.36,.2-.2,.52-.2,.71,0,0,0,0,0,0,0l.94,.95c.09,.1,.14,.22,.13,.35,0,.13-.04,.25-.13,.34-.09,.1-.21,.15-.34,.15-.13,0-.26-.05-.36-.13ZM12.75,13.47l-.94-.95c-.09-.1-.14-.23-.13-.36,0-.13,.05-.26,.15-.34,.08-.1,.21-.15,.34-.15,.13,0,.26,.05,.35,.15l.95,.94c.1,.09,.15,.23,.14,.36,0,.13-.05,.26-.14,.36-.2,.2-.52,.2-.71,0,0,0,0,0,0,0Zm-.94-8.28c-.19-.19-.2-.49-.01-.69,0,0,0,0,.01-.01l.94-.95c.09-.1,.23-.15,.36-.14,.13,0,.26,.05,.36,.14,.2,.2,.2,.52,0,.71,0,0,0,0,0,0l-.95,.94c-.09,.09-.22,.14-.34,.13-.13,0-.26-.05-.36-.14ZM3.53,13.47c-.2-.2-.2-.52,0-.71,0,0,0,0,0,0l.95-.94c.17-.22,.48-.27,.7-.1s.27,.48,.1,.7c-.03,.04-.06,.07-.1,.1l-.94,.95c-.09,.1-.23,.15-.36,.14-.13,0-.26-.05-.36-.14Z"/></svg>