<?xml version="1.0" encoding="UTF-8"?><svg id="Layer_1" xmlns="http://www.w3.org/2000/svg" viewBox="0 0 17 17"><defs><style>.cls-1{fill:#fff;}</style></defs><path id="Path_1" class="cls-1" d="M8.5,14.91c-3.53,.01-6.39-2.83-6.41-6.36,0-.02,0-.04,0-.05-.01-3.53,2.83-6.39,6.36-6.41,.02,0,.03,0,.05,0,.1,0,.2,0,.3,0l.41,.03c-.43,.39-.78,.87-1,1.41-.23,.56-.35,1.15-.35,1.76,0,2.12,1.7,3.84,3.81,3.85,.01,0,.02,0,.03,0,.6,0,1.2-.11,1.76-.33,.53-.2,1.01-.51,1.41-.92,.01,.14,.02,.26,.03,.35s0,.17,0,.26c.01,3.53-2.83,6.39-6.36,6.41-.02,0-.03,0-.05,0h0Zm0-1.06c1.24,.02,2.44-.4,3.38-1.2,.9-.71,1.54-1.7,1.8-2.82-.31,.13-.63,.23-.95,.29-.34,.07-.68,.1-1.02,.1-2.7,.01-4.9-2.17-4.92-4.87,0-.02,0-.03,0-.05,0-.31,.03-.61,.09-.92,.07-.38,.18-.75,.32-1.11-1.15,.31-2.17,1-2.89,1.95-1.68,2.12-1.5,5.16,.41,7.07,.99,1.02,2.36,1.59,3.78,1.56h0Z"/></svg>