<?xml version="1.0" encoding="UTF-8"?><svg id="Layer_1" xmlns="http://www.w3.org/2000/svg" xmlns:xlink="http://www.w3.org/1999/xlink" viewBox="0 0 22 22"><defs><style>.cls-1{fill:none;}.cls-2{clip-path:url(#clippath);}.cls-3{fill:#8462f6;}</style><clipPath id="clippath"><rect class="cls-1" x="2.46" y=".75" width="17.08" height="20.49"/></clipPath></defs><g id="Group_29723"><g class="cls-2"><g id="Group_29722"><path id="Path_30323" class="cls-3" d="M4.13,21.25c-.42,0-.82-.14-1.13-.42-.3-.26-.47-.64-.47-1.04V9.17c0-.4,.17-.78,.47-1.04,.31-.28,.71-.44,1.13-.43h1.87v-2.34c-.01-1.26,.53-2.46,1.48-3.29,.98-.9,2.27-1.39,3.59-1.36,1.33-.03,2.62,.46,3.6,1.36,.95,.82,1.5,2.03,1.48,3.29v2.34h1.87c.42,0,.83,.14,1.14,.43,.3,.26,.47,.64,.46,1.04v10.6c0,.4-.17,.78-.47,1.04-.31,.28-.72,.44-1.14,.43H4.13Zm0-1.46h13.9V9.17H4.13v10.6Zm6.95-3.42c.54,.01,1.06-.18,1.46-.54,.38-.32,.6-.8,.6-1.3,0-.51-.22-.99-.6-1.33-.81-.8-2.11-.8-2.91,0-.38,.34-.59,.82-.6,1.33,0,.5,.22,.98,.6,1.3,.4,.36,.92,.55,1.46,.54M7.61,7.71h6.95v-2.34c0-.86-.36-1.68-1.02-2.25-.67-.62-1.55-.95-2.46-.93-.91-.02-1.79,.31-2.46,.93-.65,.56-1.02,1.39-1.01,2.25v2.34Zm-3.48,12.07h0Z"/></g></g></g></svg>