<?xml version="1.0" encoding="UTF-8"?><svg id="Layer_1" xmlns="http://www.w3.org/2000/svg" xmlns:xlink="http://www.w3.org/1999/xlink" viewBox="0 0 22 22"><defs><style>.cls-1{fill:none;}.cls-2{clip-path:url(#clippath);}.cls-3{fill:#8462f6;}</style><clipPath id="clippath"><rect class="cls-1" x="2.46" y=".33" width="17.08" height="21.34"/></clipPath></defs><g id="Group_29763"><g class="cls-2"><g id="Group_29762"><path id="Path_30326" class="cls-3" d="M7.51,17.14h6.99c.44,0,.8-.36,.8-.8s-.36-.8-.8-.8H7.51c-.44,0-.8,.36-.8,.8s.36,.8,.8,.8m0-4.54h6.99c.44,0,.8-.36,.8-.8s-.36-.8-.8-.8H7.51c-.44,0-.8,.36-.8,.8s.36,.8,.8,.8m-3.44,9.07c-.42,0-.83-.17-1.12-.48-.31-.29-.48-.7-.48-1.12V1.93c0-.42,.17-.83,.48-1.12,.29-.31,.7-.48,1.12-.48H13.03c.22,0,.43,.05,.63,.13,.19,.08,.37,.2,.52,.35l4.89,4.88c.15,.15,.27,.33,.35,.52,.09,.2,.13,.41,.13,.63v13.23c-.02,.87-.73,1.58-1.6,1.6H4.06ZM12.89,6.09V1.93H4.06V20.07h13.88V6.89h-4.24c-.43,.01-.79-.32-.8-.75,0-.02,0-.03,0-.05M4.06,1.93h0Z"/></g></g></g></svg>