<?xml version="1.0" encoding="UTF-8"?><svg id="Layer_1" xmlns="http://www.w3.org/2000/svg" xmlns:xlink="http://www.w3.org/1999/xlink" viewBox="0 0 22 22"><defs><style>.cls-1{fill:none;}.cls-2{clip-path:url(#clippath);}.cls-3{fill:#8462f6;}</style><clipPath id="clippath"><rect class="cls-1" x="2.03" y=".44" width="17.94" height="21.13"/></clipPath></defs><g id="Group_29720"><g class="cls-2"><g id="Group_29719"><path id="Path_30321" class="cls-3" d="M11,14.19c.61,.01,1.11-.45,1.12-1.02,0-.01,0-.03,0-.04v-1.6h1.68c.62,0,1.12-.48,1.12-1.06s-.5-1.06-1.12-1.06h-1.68v-1.6c0-.59-.5-1.06-1.12-1.06s-1.12,.48-1.12,1.06v1.6h-1.68c-.62,0-1.12,.48-1.12,1.06s.5,1.06,1.12,1.06h1.68v1.6c-.01,.58,.47,1.05,1.08,1.06,.01,0,.03,0,.04,0m0,7.37c-.07,0-.14,0-.21-.01-.06,0-.12-.02-.18-.04-2.53-.73-4.71-2.28-6.17-4.38-1.58-2.13-2.42-4.67-2.41-7.28V4.64c0-.33,.11-.65,.31-.92,.2-.27,.47-.48,.79-.6L10.41,.54c.38-.14,.8-.14,1.18,0l7.29,2.58c.32,.12,.59,.33,.78,.6,.2,.27,.31,.59,.31,.92v5.22c.01,2.6-.83,5.15-2.41,7.28-1.45,2.1-3.64,3.65-6.17,4.38l-.39,.06Zm0-1.6c2.15-.68,4-2.02,5.26-3.82,1.35-1.85,2.06-4.05,2.03-6.29V4.64l-7.29-2.61L3.71,4.64v5.22c-.03,2.25,.68,4.45,2.03,6.29,1.25,1.8,3.1,3.14,5.26,3.82"/></g></g></g></svg>