<?xml version="1.0" encoding="UTF-8"?><svg id="Layer_1" xmlns="http://www.w3.org/2000/svg" xmlns:xlink="http://www.w3.org/1999/xlink" viewBox="0 0 22 22"><defs><style>.cls-1{fill:none;}.cls-2{clip-path:url(#clippath);}.cls-3{fill:#8462f6;}</style><clipPath id="clippath"><rect class="cls-1" x=".26" y=".38" width="21.48" height="21.24"/></clipPath></defs><g id="Group_29717"><g class="cls-2"><g id="Group_29716"><path id="Path_30320" class="cls-3" d="M6.03,10.28c.32-.64,.66-1.26,1.03-1.88,.36-.62,.75-1.21,1.16-1.78l-2.1-.43-2.9,2.9,2.82,1.19ZM19.73,1.98c-1.69,.06-3.36,.45-4.9,1.16-1.59,.78-3.03,1.83-4.26,3.1-.64,.66-1.21,1.38-1.7,2.15-.6,.91-1.12,1.86-1.57,2.85l3.54,3.54c.99-.45,1.94-.97,2.85-1.57,.77-.49,1.49-1.06,2.15-1.7,1.27-1.23,2.32-2.66,3.1-4.24,.7-1.54,1.1-3.2,1.16-4.89,0-.05,0-.11-.03-.16-.02-.05-.04-.1-.08-.13-.03-.03-.07-.06-.12-.08-.05-.02-.1-.03-.15-.03m-6.31,6.71c-.35-.35-.54-.82-.53-1.32,0-1.02,.83-1.85,1.85-1.85s1.85,.83,1.85,1.85c0,1.03-.85,1.86-1.88,1.85-.48,0-.94-.19-1.29-.53m-1.62,7.4l1.2,2.79,2.9-2.9-.4-2.1c-.57,.41-1.17,.8-1.8,1.17s-1.27,.72-1.9,1.04M21.73,1.21c.08,2.1-.29,4.19-1.07,6.13-.86,1.99-2.1,3.8-3.66,5.31-.02,.02-.03,.03-.05,.04s-.04,.02-.05,.04l.58,2.93c.05,.26,.04,.52-.03,.77-.07,.25-.21,.48-.4,.67l-3.75,3.75c-.18,.19-.45,.27-.7,.21-.26-.04-.48-.23-.57-.48l-1.81-4.18-4.5-4.52-4.2-1.78c-.25-.09-.43-.32-.47-.59-.05-.26,.03-.53,.23-.72l3.72-3.72c.18-.19,.41-.33,.66-.41,.25-.08,.52-.09,.77-.04l2.93,.59s.03-.03,.05-.04,.04-.02,.05-.04c1.51-1.56,3.31-2.8,5.3-3.66,1.94-.79,4.02-1.15,6.12-1.08,.11,0,.21,.02,.31,.07,.1,.05,.2,.12,.28,.2,.08,.08,.15,.17,.2,.27,.04,.09,.07,.19,.07,.29M2.23,15.1c.6-.61,1.42-.95,2.27-.94,.85-.03,1.68,.31,2.28,.92,.61,.6,.94,1.42,.92,2.27,0,.86-.33,1.68-.95,2.27-.61,.55-1.35,.94-2.14,1.14-1.43,.39-2.88,.68-4.35,.85,.17-1.47,.45-2.93,.84-4.36,.2-.8,.59-1.54,1.13-2.15m1.12,1.14c-.3,.37-.53,.79-.66,1.25-.23,.71-.4,1.44-.51,2.18,.74-.11,1.47-.28,2.18-.51,.46-.13,.88-.36,1.25-.67,.33-.28,.51-.69,.52-1.13,.03-.88-.65-1.62-1.53-1.65-.04,0-.08,0-.12,0-.43,0-.85,.19-1.13,.52"/></g></g></g></svg>