<?xml version="1.0" encoding="UTF-8"?><svg id="Layer_1" xmlns="http://www.w3.org/2000/svg" viewBox="0 0 30 30"><defs><style>.cls-1{fill:#8462f6;}</style></defs><g id="tootericon_github"><path id="Path_24899" class="cls-1" d="M24.98,15.43c.09-5.51-4.31-10.05-9.82-10.14-5.51-.09-10.05,4.31-10.14,9.82-.07,4.32,2.65,8.19,6.73,9.6,.28-.14,.48-.42,.51-.73,0-.54-.01-1.93-.01-1.93-.35,.05-.7,.08-1.05,.07-1.02,.07-1.95-.55-2.28-1.52-.22-.55-.61-1.01-1.12-1.31-.26-.16-.32-.36-.02-.41,1.38-.25,1.73,1.53,2.65,1.81,.64,.19,1.32,.14,1.92-.15,.09-.51,.37-.96,.79-1.26-2.34-.22-3.73-1.02-4.45-2.29l-.08-.14-.18-.41-.05-.15c-.23-.72-.34-1.47-.33-2.22-.04-1.05,.36-2.07,1.1-2.81-.3-.93-.24-1.94,.17-2.83,0,0,1.01-.21,2.93,1.14,1.67-.44,3.43-.47,5.12-.1,.8-.52,2.28-1.26,2.87-1.05,.39,.81,.47,1.74,.21,2.61,.84,.87,1.29,2.04,1.25,3.25,0,.68-.09,1.36-.26,2.02l-.09,.29s-.05,.14-.1,.27l-.06,.14c-.7,1.49-2.12,2.05-4.42,2.28,.75,.46,.96,1.03,.96,2.59s-.02,1.77-.02,2.13c.04,.3,.23,.57,.49,.72,4.01-1.32,6.74-5.06,6.76-9.28Z"/></g></svg>