<?xml version="1.0" encoding="UTF-8"?><svg id="Layer_1" xmlns="http://www.w3.org/2000/svg" viewBox="0 0 30 30"><defs><style>.cls-1{fill:#8462f6;}</style></defs><g id="footericon_medium"><path id="Path_29891" class="cls-1" d="M16.75,15.05c-.03,4.26-3.51,7.69-7.76,7.66-4.26-.03-7.69-3.51-7.66-7.76,.03-4.24,3.47-7.66,7.71-7.66,4.27,.01,7.73,3.49,7.71,7.76h0"/><path id="Path_29892" class="cls-1" d="M25.21,15.05c0,4.04-1.73,7.31-3.86,7.31s-3.86-3.27-3.86-7.31,1.73-7.31,3.86-7.31,3.86,3.27,3.86,7.31"/><path id="Path_29893" class="cls-1" d="M28.67,15.05c0,3.62-.61,6.55-1.36,6.55s-1.36-2.94-1.36-6.55,.61-6.55,1.36-6.55,1.36,2.93,1.36,6.55"/></g></svg>