<?xml version="1.0" encoding="UTF-8"?><svg id="Layer_1" xmlns="http://www.w3.org/2000/svg" xmlns:xlink="http://www.w3.org/1999/xlink" viewBox="0 0 30 30"><defs><style>.cls-1{fill:none;}.cls-2{clip-path:url(#clippath);}.cls-3{fill:#8462f6;}</style><clipPath id="clippath"><rect class="cls-1" x="1.36" y="5.45" width="27.27" height="19.09"/></clipPath></defs><g id="tootericon_yt"><g class="cls-2"><g id="Group_8534"><path id="Path_24913" class="cls-3" d="M28.07,8.44c-.32-1.18-1.24-2.1-2.41-2.41-2.13-.57-10.66-.57-10.66-.57,0,0-8.53,0-10.66,.57-1.18,.32-2.1,1.24-2.41,2.41-.39,2.17-.58,4.36-.57,6.56-.01,2.2,.18,4.4,.57,6.57,.32,1.18,1.24,2.1,2.41,2.41,2.13,.57,10.66,.57,10.66,.57,0,0,8.53,0,10.66-.57,1.18-.32,2.1-1.24,2.41-2.41,.39-2.17,.58-4.36,.57-6.57,.01-2.2-.18-4.4-.57-6.57m-15.79,10.66V10.91l7.09,4.09-7.09,4.09Z"/></g></g></g></svg>