<?xml version="1.0" encoding="UTF-8"?><svg id="Layer_1" xmlns="http://www.w3.org/2000/svg" viewBox="0 0 30 30"><defs><style>.cls-1{fill:#8462f6;}</style></defs><g id="tootericon_twitter"><path id="Path_317" class="cls-1" d="M26.95,7.71c-.9,.39-1.85,.65-2.82,.76,1.02-.6,1.79-1.54,2.16-2.67-.97,.56-2.02,.96-3.11,1.17-.93-.98-2.23-1.53-3.58-1.52-2.68-.02-4.88,2.14-4.9,4.82,0,.37,.04,.74,.13,1.1-3.93-.18-7.6-2.01-10.11-5.04-.44,.73-.66,1.57-.66,2.42,0,1.62,.82,3.13,2.18,4.01-.78-.02-1.54-.23-2.22-.6v.06c.02,2.31,1.66,4.29,3.93,4.73-.72,.19-1.48,.22-2.22,.08,.66,1.98,2.5,3.32,4.58,3.35-1.75,1.34-3.89,2.07-6.09,2.06-.39,0-.78-.02-1.17-.07,2.25,1.42,4.86,2.17,7.52,2.17,7.58,.12,13.83-5.93,13.95-13.51,0-.07,0-.14,0-.2,0-.21,0-.42-.02-.62,.96-.68,1.79-1.52,2.45-2.49"/></g></svg>