<?xml version="1.0" encoding="UTF-8"?><svg id="Layer_1" xmlns="http://www.w3.org/2000/svg" viewBox="0 0 18 18"><defs><style>.cls-1{fill:#1a023e;}</style></defs><path id="Path_30506" class="cls-1" d="M4.09,16.94c-.62,0-1.13-.5-1.13-1.12,0,0,0,0,0-.01V7.6c0-.62,.5-1.13,1.12-1.14,0,0,0,0,.01,0h1.32v-1.81c-.02-.96,.36-1.88,1.05-2.54,1.41-1.4,3.68-1.4,5.08,0,.69,.67,1.07,1.59,1.05,2.54v1.81h1.32c.62,0,1.13,.5,1.13,1.12,0,0,0,0,0,.01V15.8c0,.62-.5,1.13-1.12,1.13,0,0,0,0-.01,0H4.09Zm0-1.13H13.91V7.6H4.09V15.8Zm4.91-2.65c.39,0,.76-.14,1.03-.42,.28-.26,.43-.62,.43-1,0-.39-.16-.75-.43-1.03-.5-.57-1.38-.62-1.94-.12-.04,.04-.08,.08-.12,.12-.27,.28-.42,.64-.43,1.03,0,.38,.15,.74,.43,1,.27,.27,.64,.42,1.03,.42m-2.46-6.69h4.92v-1.82c0-1.36-1.1-2.46-2.46-2.46s-2.46,1.1-2.46,2.46v1.82Zm-2.46,9.34h0Z"/></svg>