<?xml version="1.0" encoding="utf-8"?>
<!-- Generator: Adobe Illustrator 26.5.0, SVG Export Plug-In . SVG Version: 6.00 Build 0)  -->
<svg version="1.1" id="Layer_1" xmlns="http://www.w3.org/2000/svg" xmlns:xlink="http://www.w3.org/1999/xlink" x="0px" y="0px"
	 viewBox="0 0 24 24" style="enable-background:new 0 0 24 24;" xml:space="preserve">
<style type="text/css">
	.st0{fill:#FFFFFF;}
</style>
<g id="Group_29958">
	<g id="Group_4129">
		<g id="Group_3874">
			<g id="Group_3873">
				
					<rect id="Rectangle_27" x="10.1" y="9.8" transform="matrix(0.7071 -0.7071 0.7071 0.7071 -4.7486 11.8858)" class="st0" width="3.7" height="3.8"/>
			</g>
			<path id="Path_23544" class="st0" d="M12,5.5L12,5.5l4.7,4.4l2.6-2.5l-7.4-7.1l-7.4,7l2.6,2.5l4.8-4.5L12,5.5z"/>
			<path id="Path_23545" class="st0" d="M16.6,14.1l-4.8,4.5l-4.8-4.5l-2.6,2.5l7.4,7l7.3-7L16.6,14.1L16.6,14.1z"/>
			
				<rect id="Rectangle_28" x="1.2" y="10.2" transform="matrix(0.7071 -0.7071 0.7071 0.7071 -7.5943 5.6008)" class="st0" width="3.5" height="3.6"/>
			
				<rect id="Rectangle_29" x="19" y="10.1" transform="matrix(0.7071 -0.7071 0.7071 0.7071 -2.3372 18.2815)" class="st0" width="3.8" height="3.7"/>
		</g>
	</g>
</g>
</svg>
