<?xml version="1.0" encoding="utf-8"?>
<!-- Generator: Adobe Illustrator 26.5.0, SVG Export Plug-In . SVG Version: 6.00 Build 0)  -->
<svg version="1.1" id="Layer_1" xmlns="http://www.w3.org/2000/svg" xmlns:xlink="http://www.w3.org/1999/xlink" x="0px" y="0px"
	 viewBox="0 0 24 24" style="enable-background:new 0 0 24 24;" xml:space="preserve">
<style type="text/css">
	.st0{fill:#FFFFFF;}
</style>
<g id="Group_29972">
	<g id="Group_29966">
		<path id="Path_30526" class="st0" d="M12,1.1l2.7,2.8l-6.8,6.8L5.2,7.9L12,1.1z"/>
		<g id="Group_29961">
			<g id="Group_29960">
				<path id="Path_30527" class="st0" d="M12,1.1l2.7,2.8l-6.8,6.8L5.2,7.9L12,1.1z"/>
			</g>
		</g>
		<path id="Path_30528" class="st0" d="M16.1,5.2l2.7,2.8L7.9,18.8l-2.7-2.7L16.1,5.2z"/>
		<path id="Path_30529" class="st0" d="M16.1,5.2l2.7,2.8L7.9,18.8l-2.7-2.7L16.1,5.2z"/>
		<path id="Path_30530" class="st0" d="M1.1,12l2.7,2.7L6.5,12L3.8,9.3C3.8,9.3,1.1,12,1.1,12z"/>
		<g id="Group_29963">
			<g id="Group_29962">
				<path id="Path_30531" class="st0" d="M3.8,9.3L6.5,12l-2.7,2.7L1.1,12L3.8,9.3z"/>
			</g>
		</g>
		<path id="Path_30532" class="st0" d="M9.3,20.2l2.7,2.7L22.9,12l-2.7-2.8L9.3,20.2L9.3,20.2z"/>
		<g id="Group_29965">
			<g id="Group_29964">
				<path id="Path_30533" class="st0" d="M20.2,9.3l2.7,2.8L12,22.9l-2.7-2.7C9.3,20.2,20.2,9.3,20.2,9.3z"/>
			</g>
		</g>
	</g>
</g>
</svg>
