<?xml version="1.0" encoding="utf-8"?>
<!-- Generator: Adobe Illustrator 26.5.0, SVG Export Plug-In . SVG Version: 6.00 Build 0)  -->
<svg version="1.1" id="Layer_1" xmlns="http://www.w3.org/2000/svg" xmlns:xlink="http://www.w3.org/1999/xlink" x="0px" y="0px"
	 viewBox="0 0 24 24" style="enable-background:new 0 0 24 24;" xml:space="preserve">
<style type="text/css">
	.st0{fill-rule:evenodd;clip-rule:evenodd;fill:#FFFFFF;}
</style>
<g id="Group_29973">
	<path id="Path_30534" class="st0" d="M14.2,12.8L14.2,12.8c-0.1,0-0.8,0.1-2.2,0.1c-1.1,0-1.9,0-2.2-0.1c-4.4-0.2-7.7-1-7.7-1.9
		S5.4,9.2,9.8,9v3c0.3,0,1.1,0.1,2.2,0.1c1.4,0,2-0.1,2.2-0.1V9c4.4,0.2,7.6,1,7.6,1.9S18.6,12.6,14.2,12.8L14.2,12.8L14.2,12.8z
		 M14.2,8.7V6h6.1V2H3.7V6h6.1v2.7c-5,0.2-8.7,1.2-8.7,2.4s3.7,2.2,8.7,2.4V22h4.4v-8.6c4.9-0.2,8.7-1.2,8.7-2.4S19.2,8.9,14.2,8.7
		L14.2,8.7L14.2,8.7z"/>
</g>
</svg>
