<?xml version="1.0" encoding="UTF-8"?><svg id="Layer_1" xmlns="http://www.w3.org/2000/svg" viewBox="0 0 18 18"><defs><style>.cls-1{fill:#1a023e;}</style></defs><path id="Path_30507" class="cls-1" d="M15.65,12.97l-1.13-1.13V6.79h-5.05l-1.13-1.14h3.72v-1.79c.01-.67-.26-1.3-.75-1.76-.47-.47-1.12-.73-1.79-.72-.67-.01-1.32,.25-1.79,.73-.47,.46-.74,1.09-.73,1.75v.47l-1.04-1.04c.1-.85,.52-1.63,1.18-2.18,.66-.57,1.5-.87,2.37-.86,.97-.02,1.91,.36,2.6,1.05,.7,.67,1.08,1.6,1.07,2.56v1.79h1.32c.62,0,1.13,.5,1.13,1.12,0,0,0,0,0,.01v6.18Zm-10.96,3.16c-.62,0-1.13-.5-1.13-1.12,0,0,0,0,0-.01V6.79c0-.59,.45-1.08,1.04-1.14L.67,1.72c-.11-.1-.17-.25-.16-.4,0-.15,.07-.29,.18-.4,.21-.22,.56-.23,.77-.02,0,0,.01,.01,.02,.02l15.86,15.86c.11,.1,.17,.25,.16,.4,0,.15-.07,.3-.18,.4-.21,.22-.56,.23-.77,.02,0,0-.01-.01-.02-.02l-1.55-1.55c-.08,.03-.16,.06-.25,.08-.07,.01-.14,.02-.21,.02H4.69Zm9.26-1.14l-3.31-3.29c-.13,.13-.28,.23-.45,.3-.18,.06-.36,.1-.55,.09-.38,0-.74-.13-1.01-.4-.27-.26-.42-.62-.41-1,0-.19,.03-.38,.1-.56,.07-.17,.18-.33,.31-.46l-2.91-2.89h-1.04V14.99H13.95Z"/></svg>