<?xml version="1.0" encoding="utf-8"?>
<!-- Generator: Adobe Illustrator 26.5.0, SVG Export Plug-In . SVG Version: 6.00 Build 0)  -->
<svg version="1.1" id="Layer_1" xmlns="http://www.w3.org/2000/svg" xmlns:xlink="http://www.w3.org/1999/xlink" x="0px" y="0px"
	 viewBox="0 0 24 24" style="enable-background:new 0 0 24 24;" xml:space="preserve">
<style type="text/css">
	.st0{fill:#FFFFFF;}
</style>
<g id="Group_29971">
	<g id="Group_29970">
		<path id="Path_30536" class="st0" d="M16.2,14.2c0-2.2-1.4-3-4-3.3c-1.9-0.3-2.3-0.8-2.3-1.7s0.6-1.5,1.9-1.5
			c0.9-0.2,1.9,0.4,2.1,1.3c0.1,0.2,0.2,0.3,0.4,0.3h1c0.2,0,0.4-0.2,0.4-0.4l0,0V8.9c-0.3-1.4-1.4-2.5-2.9-2.6V4.7
			c0-0.3-0.2-0.4-0.5-0.5h-1c-0.3,0-0.4,0.2-0.5,0.5v1.5C9.3,6.3,7.9,7.7,7.8,9.4c0,2.1,1.3,2.9,4,3.3c1.8,0.3,2.4,0.7,2.4,1.7
			s-0.9,1.7-2.1,1.7c-1.7,0-2.2-0.7-2.4-1.7c0-0.2-0.2-0.4-0.4-0.4H8.1c-0.2,0-0.4,0.2-0.4,0.4l0,0v0.1c0.3,1.6,1.3,2.8,3.4,3.1v1.5
			c0,0.3,0.2,0.5,0.5,0.5h1c0.3,0,0.4-0.2,0.5-0.5v-1.5C14.8,17.5,16.2,16,16.2,14.2L16.2,14.2L16.2,14.2z"/>
		<path id="Path_30537" class="st0" d="M8.7,21c-5-1.8-7.5-7.3-5.7-12.3C4,6,6.1,3.9,8.7,3C9,2.9,9.1,2.6,9.1,2.3V1.4
			C9.1,1.2,9,1,8.7,0.9c-0.1,0-0.2,0-0.3,0.1C2.4,2.9-1,9.4,1,15.5C2.1,19,4.9,21.8,8.5,23c0.2,0.1,0.4,0,0.5-0.1c0,0,0-0.1,0-0.1
			c0.1-0.1,0.1-0.1,0.1-0.3v-0.9C9.1,21.3,8.9,21.1,8.7,21 M15.5,1c-0.2-0.1-0.4-0.1-0.5,0.1c0,0,0,0.1,0,0.1
			c-0.1,0.1-0.1,0.1-0.1,0.3v0.9c0,0.3,0.2,0.5,0.4,0.6c5,1.8,7.5,7.3,5.7,12.3c-1,2.6-3.1,4.7-5.7,5.7c-0.2,0.1-0.4,0.4-0.4,0.6
			v0.9c0,0.2,0.1,0.5,0.4,0.5c0.1,0,0.2,0,0.3-0.1c6.1-2,9.4-8.5,7.5-14.6C21.9,4.9,19.1,2.1,15.5,1"/>
	</g>
</g>
</svg>
