<?xml version="1.0" encoding="UTF-8"?><svg id="Layer_1" xmlns="http://www.w3.org/2000/svg" viewBox="0 0 24 24"><defs><style>.cls-1{fill:#898989;fill-rule:evenodd;}</style></defs><g id="Group_29973"><path id="Path_30534" class="cls-1" d="M14.21,12.75h0c-.12,0-.76,.05-2.19,.05-1.13,0-1.94-.03-2.22-.05-4.38-.19-7.65-.96-7.65-1.87s3.27-1.68,7.65-1.87v2.98c.29,.02,1.11,.07,2.24,.07,1.36,0,2.04-.06,2.16-.07v-2.98c4.37,.19,7.63,.96,7.63,1.87s-3.26,1.68-7.63,1.87h0Zm0-4.05v-2.67h6.1V1.96H3.71V6.03h6.1v2.67c-4.96,.23-8.68,1.21-8.68,2.39s3.73,2.16,8.68,2.39v8.55h4.41V13.48c4.94-.23,8.67-1.21,8.67-2.39s-3.72-2.16-8.67-2.39h0Z"/></g></svg>