<?xml version="1.0" encoding="UTF-8"?><svg id="Layer_1" xmlns="http://www.w3.org/2000/svg" viewBox="0 0 35 35"><defs><style>.cls-1{fill:#7365ad;}</style></defs><g id="tootericon_twitter"><path id="Path_317" class="cls-1" d="M31.77,8.79c-1.07,.47-2.2,.77-3.36,.91,1.22-.71,2.13-1.84,2.58-3.18-1.15,.67-2.41,1.15-3.72,1.4-1.12-1.16-2.66-1.82-4.27-1.82-3.2-.03-5.82,2.54-5.85,5.75,0,0,0,0,0,0,0,.44,.05,.88,.15,1.31-4.69-.22-9.07-2.4-12.07-6.01-.52,.88-.79,1.87-.79,2.89,0,1.93,.98,3.73,2.6,4.79-.93-.03-1.84-.27-2.65-.72v.07c.02,2.76,1.99,5.12,4.7,5.64-.86,.23-1.77,.27-2.64,.1,.79,2.36,2.98,3.97,5.47,4-2.08,1.6-4.64,2.47-7.27,2.46-.47,0-.94-.03-1.4-.08,2.69,1.69,5.8,2.59,8.97,2.59,9.05,.15,16.51-7.07,16.65-16.13,0-.08,0-.16,0-.24,0-.25,0-.5-.02-.74,1.14-.81,2.13-1.82,2.92-2.98"/></g></svg>