<?xml version="1.0" encoding="UTF-8"?><svg id="Layer_1" xmlns="http://www.w3.org/2000/svg" xmlns:xlink="http://www.w3.org/1999/xlink" viewBox="0 0 35 35"><defs><style>.cls-1{fill:none;}.cls-2{clip-path:url(#clippath);}.cls-3{fill:#7365ad;}</style><clipPath id="clippath"><rect class="cls-1" x="1.22" y="6.1" width="32.56" height="22.79"/></clipPath></defs><g id="tootericon_yt"><g class="cls-2"><g id="Group_8534"><path id="Path_24913" class="cls-3" d="M33.1,9.66c-.38-1.4-1.48-2.5-2.88-2.88-2.54-.68-12.72-.68-12.72-.68,0,0-10.18,0-12.72,.68-1.4,.38-2.5,1.48-2.88,2.88-.47,2.59-.7,5.21-.68,7.84-.02,2.63,.21,5.25,.68,7.84,.38,1.4,1.48,2.5,2.88,2.88,2.54,.68,12.72,.68,12.72,.68,0,0,10.18,0,12.72-.68,1.4-.38,2.5-1.48,2.88-2.88,.47-2.59,.7-5.21,.68-7.84,.02-2.63-.21-5.25-.68-7.84M14.25,22.39V12.62l8.46,4.89-8.46,4.88Z"/></g></g></g></svg>