<?xml version="1.0" encoding="UTF-8"?><svg id="Layer_1" xmlns="http://www.w3.org/2000/svg" viewBox="0 0 35 35"><defs><style>.cls-1{fill:#7265ad;}</style></defs><path id="Path_30372" class="cls-1" d="M17.5,5.16c-3.36,0-3.77,.02-5.09,.07-1.02,.02-2.04,.22-3,.57-1.66,.64-2.97,1.95-3.61,3.61-.36,.96-.55,1.97-.57,2.99-.06,1.32-.07,1.73-.07,5.09s.02,3.77,.07,5.09c.02,1.02,.21,2.04,.57,2.99,.64,1.66,1.95,2.97,3.61,3.61,.96,.36,1.97,.55,3,.57,1.32,.06,1.73,.07,5.09,.07s3.77-.02,5.09-.07c1.02-.02,2.04-.21,3-.57,1.66-.64,2.97-1.95,3.61-3.61,.36-.96,.55-1.97,.57-2.99,.06-1.32,.07-1.73,.07-5.09s-.02-3.77-.07-5.09c-.02-1.02-.22-2.04-.57-2.99-.64-1.66-1.95-2.97-3.61-3.61-.96-.36-1.97-.55-3-.57-1.32-.06-1.73-.07-5.09-.07h0Zm-1.11,2.22h1.11c3.3,0,3.69,.01,4.99,.07,.78,0,1.56,.15,2.29,.42,1.08,.42,1.93,1.27,2.34,2.34,.27,.73,.42,1.51,.43,2.29,.06,1.3,.07,1.69,.07,4.98s-.01,3.68-.07,4.98c0,.78-.15,1.56-.43,2.29-.42,1.08-1.27,1.92-2.34,2.34-.73,.27-1.51,.42-2.29,.43-1.3,.06-1.69,.07-4.99,.07s-3.69-.01-4.99-.07c-.78,0-1.56-.15-2.29-.43-1.08-.41-1.93-1.26-2.34-2.34-.27-.73-.42-1.51-.43-2.29-.06-1.3-.07-1.69-.07-4.98s.01-3.68,.07-4.98c0-.78,.15-1.56,.43-2.29,.42-1.08,1.27-1.93,2.34-2.34,.73-.27,1.51-.42,2.29-.43,1.14-.05,1.58-.07,3.88-.07h0Zm7.7,2.05c-.82,0-1.48,.66-1.48,1.48s.66,1.48,1.48,1.48c.82,0,1.48-.66,1.48-1.48,0-.82-.66-1.48-1.48-1.48Zm-6.59,1.73c-3.5,0-6.33,2.84-6.33,6.34,0,3.5,2.84,6.33,6.34,6.33,3.5,0,6.33-2.84,6.33-6.33,0-3.5-2.84-6.34-6.34-6.34Zm0,2.22c2.27,0,4.11,1.84,4.11,4.11,0,2.27-1.84,4.11-4.11,4.11-2.27,0-4.11-1.84-4.11-4.11s1.84-4.11,4.11-4.11h0Z"/></svg>