<?xml version="1.0" encoding="UTF-8"?><svg id="Layer_1" xmlns="http://www.w3.org/2000/svg" xmlns:xlink="http://www.w3.org/1999/xlink" viewBox="0 0 35 35"><defs><style>.cls-1{fill:none;}.cls-2{clip-path:url(#clippath);}.cls-3{fill:#7265ad;}</style><clipPath id="clippath"><rect class="cls-1" x="1.66" y="6.1" width="31.69" height="22.79"/></clipPath></defs><g id="Group_30040"><g class="cls-2"><g id="Group_29819"><path id="Path_30442" class="cls-3" d="M33.34,24.77c-.09-5.5-1.42-10.91-3.91-15.82-2.18-1.72-4.85-2.71-7.62-2.85l-.38,.43c2.47,.66,4.77,1.83,6.76,3.45-2.53-1.39-5.3-2.27-8.17-2.6-1.82-.2-3.66-.18-5.48,.05-.15,0-.31,.02-.46,.05-2.13,.24-4.21,.82-6.16,1.7-1,.46-1.6,.79-1.6,.79,2.09-1.69,4.52-2.91,7.13-3.55l-.27-.33c-2.77,.14-5.44,1.13-7.62,2.85-2.48,4.91-3.82,10.32-3.91,15.82,0,0,2.28,3.93,8.27,4.12,0,0,1-1.22,1.82-2.25-1.91-.48-3.59-1.61-4.75-3.2,0,0,.27,.19,.76,.46,.03,.03,.07,.06,.11,.08,.08,.05,.16,.08,.24,.14,.64,.35,1.3,.66,1.98,.92,1.29,.51,2.63,.9,3.99,1.16,2.32,.45,4.7,.45,7.03,.03,1.35-.24,2.67-.63,3.93-1.17,1.1-.41,2.14-.95,3.12-1.6-1.2,1.62-2.94,2.77-4.91,3.23,.81,1.03,1.79,2.2,1.79,2.2,6-.19,8.3-4.12,8.3-4.12m-20.92-2.52c-1.59-.07-2.83-1.42-2.77-3.01-.07-1.59,1.17-2.94,2.76-3.01,0,0,0,0,0,0,1.59,.06,2.83,1.39,2.77,2.97,0,.01,0,.03,0,.04,.07,1.59-1.17,2.94-2.76,3.01,0,0,0,0,0,0m9.9,0c-1.59-.08-2.83-1.42-2.77-3.01-.07-1.6,1.17-2.94,2.76-3.01,0,0,0,0,0,0,1.6,.07,2.83,1.41,2.77,3.01,0,0,0,0,0,0,.07,1.59-1.17,2.94-2.76,3.01,0,0,0,0,0,0"/></g></g></g></svg>